<?xml version="1.0" encoding="UTF-8" standalone="no"?>
<svg
   xmlns:dc="http://purl.org/dc/elements/1.1/"
   xmlns:cc="http://creativecommons.org/ns#"
   xmlns:rdf="http://www.w3.org/1999/02/22-rdf-syntax-ns#"
   xmlns:svg="http://www.w3.org/2000/svg"
   xmlns="http://www.w3.org/2000/svg"
   xmlns:sodipodi="http://sodipodi.sourceforge.net/DTD/sodipodi-0.dtd"
   xmlns:inkscape="http://www.inkscape.org/namespaces/inkscape"
   viewBox="0 0 256 256"
   version="1.1"
   id="svg845"
   sodipodi:docname="icon.svg"
   width="256"
   height="256"
   inkscape:version="1.0.1 (3bc2e813f5, 2020-09-07)">
  <path
     id="path1418"
     style="fill:#ffffff;stroke-width:0.697696;stroke-linecap:round;stroke-linejoin:round"
     d="m 127.11523,28.824219 c -7.98016,0.186379 -15.86882,3.969921 -20.75191,10.330935 -2.67837,3.31599 -4.30118,7.292124 -6.22074,11.057737 -0.403286,1.484336 -0.14245,3.048997 -0.234367,4.570992 -0.185324,23.325941 -0.320482,46.652347 -0.528982,69.978057 -0.06275,4.59947 -0.115285,9.20636 -0.333461,13.74994 -0.256546,3.86823 -0.337712,7.87738 -1.873895,11.49984 -1.405135,2.95289 -3.553464,5.46057 -5.268991,8.22891 -3.279011,5.00989 -6.071167,10.49201 -7.006044,16.46558 -0.757477,4.83328 -0.804529,9.77782 -0.253478,14.63572 0.874533,7.70226 3.987483,15.1367 8.948891,21.10154 6.131801,7.44531 14.483107,13.277 23.948177,15.49212 9.60397,2.22679 19.99061,1.33129 28.91715,-2.93583 9.1103,-4.28832 16.83302,-11.63069 21.16807,-20.75908 4.8424,-9.9769 5.52776,-21.80682 2.1236,-32.33812 -1.63813,-5.23743 -4.30281,-10.1068 -7.5661,-14.50357 -2.12473,-3.11271 -3.75243,-6.51907 -5.3101,-9.94001 -0.23312,-31.20116 -0.46553,-62.402334 -0.69727,-93.603511 -0.32098,-1.582508 -1.14083,-3.016696 -1.67729,-4.535136 -2.90608,-7.545884 -9.05612,-13.797687 -16.64313,-16.647993 -3.41331,-1.309366 -7.08518,-1.943676 -10.74013,-1.848121 z m 1.08008,56.054687 c 1.02891,0.424431 1.86828,1.177625 2.73828,1.851563 0.0423,21.391871 -0.0889,42.784891 0.17623,64.175711 0.0969,3.76193 0.0399,7.53583 0.35307,11.28718 0.35783,1.60688 2.02323,2.30534 3.28931,3.09974 2.11536,1.11184 4.28958,2.1954 6.0108,3.8939 5.65828,5.26558 7.80614,14.07131 4.89341,21.27642 -1.65078,3.40058 -4.2191,6.31341 -7.15106,8.67197 -1.5691,1.33106 -3.5547,1.99677 -5.5604,2.31045 -3.53997,0.57759 -7.21784,0.76448 -10.74183,-0.0103 -6.07899,-1.90889 -10.96045,-7.12473 -12.48497,-13.31063 -1.05951,-4.12998 -0.77462,-8.62855 0.88036,-12.56235 1.68421,-3.21719 4.21442,-5.94522 7.02762,-8.21243 1.26918,-1.06415 2.7729,-1.78721 4.36841,-2.21149 0.71925,-0.17587 1.37528,-0.45908 1.85164,-1.04735 0.93622,-0.61207 0.55564,-1.87271 0.6382,-2.82021 0.0307,-20.01621 -0.0825,-40.03317 0.11269,-60.04875 0.10505,-4.691168 0.0545,-9.396861 0.48495,-14.072529 0.19928,-0.948018 1.20336,-1.491787 1.99749,-1.927098 0.35371,-0.164283 0.7266,-0.298574 1.1158,-0.343807 z" />
  <path
     id="path1454"
     style="stroke-width:0.493416"
     d="m 127.9375,79.378906 c -4.60125,-0.07378 -8.77731,3.98183 -8.86906,8.574917 8.7e-4,24.074997 -0.0104,48.150627 -0.004,72.225867 -6.38751,2.50168 -11.67259,7.71734 -14.11757,14.14147 -2.74184,7.00526 -2.08545,15.26142 1.86677,21.68137 3.56682,5.92939 9.68601,10.27916 16.50629,11.53877 7.26744,1.43565 15.12024,-0.63427 20.73155,-5.47338 6.31327,-5.32871 9.63436,-13.96869 8.44559,-22.15347 -1.00432,-7.47892 -5.61317,-14.38846 -12.19633,-18.10107 -1.08472,-0.62056 -2.2144,-1.16247 -3.37497,-1.62588 0.007,-24.2148 0.008,-48.43347 -0.0254,-72.648438 -0.32195,-4.494519 -4.44949,-8.27497 -8.96289,-8.160156 z" />
  <metadata
     id="metadata851">
    <rdf:RDF>
      <cc:Work
         rdf:about="">
        <dc:format>image/svg+xml</dc:format>
        <dc:type
           rdf:resource="http://purl.org/dc/dcmitype/StillImage" />
        <dc:title></dc:title>
      </cc:Work>
    </rdf:RDF>
  </metadata>
  <defs
     id="defs849" />
  <sodipodi:namedview
     pagecolor="#ffffff"
     bordercolor="#666666"
     borderopacity="1"
     objecttolerance="10"
     gridtolerance="10"
     guidetolerance="10"
     inkscape:pageopacity="0"
     inkscape:pageshadow="2"
     inkscape:window-width="1920"
     inkscape:window-height="1017"
     id="namedview847"
     showgrid="false"
     inkscape:zoom="1.4355469"
     inkscape:cx="203.48447"
     inkscape:cy="218.88597"
     inkscape:window-x="-8"
     inkscape:window-y="-8"
     inkscape:window-maximized="1"
     inkscape:current-layer="svg845" />
  <!--!Font Awesome Free 6.5.2 by @fontawesome - https://fontawesome.com License - https://fontawesome.com/license/free Copyright 2024 Fonticons, Inc.-->
  <path
     id="path843"
     d="m 127.34774,4.6493875 c -8.02121,0.09157 -16.02022,2.0432758 -23.15365,5.7199575 -8.327396,4.244813 -15.459746,10.780757 -20.441411,18.686896 -3.467236,5.459397 -5.87938,11.579589 -7.107274,17.927662 -0.169537,0.89062 -0.338628,1.884856 -0.464239,2.822757 -0.213147,1.546483 -0.353061,3.102901 -0.424295,4.662328 -0.01191,0.331472 -0.02634,0.822062 -0.03921,1.214601 -0.04863,4.109504 -0.0047,8.219545 -0.0215,12.329273 v 70.430308 c -0.307239,1.70366 -1.472745,3.04334 -2.48474,4.37977 -1.175241,1.59584 -2.35125,3.33114 -3.364938,4.99127 -4.786249,7.8096 -7.954323,16.60242 -9.242875,25.67113 -0.117682,0.81028 -0.230011,1.72937 -0.320814,2.58489 -0.10226,0.97895 -0.179067,1.91007 -0.241024,2.8687 -0.02919,0.59166 -0.06635,1.13448 -0.08201,1.69195 -0.07359,1.90201 -0.05938,3.80658 0.01552,5.70832 0.01548,0.24052 0.03572,0.65717 0.05302,0.96519 0.514007,8.94982 2.829696,17.79289 6.776734,25.84214 0.153296,0.30008 0.345193,0.69902 0.504258,1.00474 2.5745,5.04966 5.785178,9.77265 9.52789,14.02904 0.229153,0.25705 0.598827,0.67555 0.832169,0.92821 1.551607,1.7004 3.18797,3.32309 4.899933,4.8617 0.260145,0.22555 0.676204,0.59788 0.9357,0.82341 3.771723,3.26098 7.899271,6.1102 12.292088,8.46959 0.412525,0.21889 0.946537,0.50384 1.411827,0.73658 0.955948,0.48817 1.945161,0.96028 2.883721,1.38329 9.24633,4.17774 19.44287,6.20539 29.58292,5.94798 1.33677,-0.0327 2.77086,-0.10952 4.14172,-0.22681 1.25212,-0.10713 2.43364,-0.23976 3.70051,-0.41554 1.49543,-0.20758 3.00224,-0.47337 4.46091,-0.77402 7.55482,-1.57677 14.83225,-4.46492 21.42023,-8.48349 0.51325,-0.31835 1.13015,-0.70342 1.67597,-1.05797 1.32194,-0.85902 2.61157,-1.7662 3.87207,-2.71299 0.33937,-0.26069 0.79254,-0.60148 1.16966,-0.90379 9.15023,-7.20992 16.42618,-16.78697 20.85445,-27.56639 1.76044,-4.26143 3.07851,-8.70448 3.93419,-13.23504 0.10748,-0.571 0.2286,-1.2678 0.32845,-1.88943 0.40318,-2.52222 0.66289,-5.06697 0.78077,-7.61846 0.0259,-0.57926 0.0492,-1.28397 0.0633,-1.91146 0.0211,-1.24217 0.0124,-2.49798 -0.0322,-3.70249 -0.0489,-1.41942 -0.14623,-2.83688 -0.28257,-4.25051 -0.0362,-0.34441 -0.0818,-0.82248 -0.12467,-1.16448 -0.4076,-3.53661 -1.09168,-7.04113 -2.04462,-10.47127 -0.0974,-0.32747 -0.22447,-0.79359 -0.32492,-1.12567 -2.38471,-8.04565 -6.31049,-15.61829 -11.43662,-22.25771 -0.8807,-1.15994 -1.68172,-2.54381 -1.53178,-4.05536 -3e-4,-27.21353 0.006,-54.427203 -0.0144,-81.64062 -0.0213,-1.014977 -0.0644,-1.948027 -0.14274,-2.966336 -0.20683,-2.72734 -0.63222,-5.458468 -1.2593,-8.090745 -0.75133,-3.212806 -1.83085,-6.346143 -3.18234,-9.355371 -0.10373,-0.218117 -0.27092,-0.585327 -0.39898,-0.860585 -0.13569,-0.278565 -0.33299,-0.697819 -0.50274,-1.029836 C 170.63701,25.21512 164.18901,18.02662 156.34491,12.976797 151.01535,9.5353395 145.05519,7.0678385 138.84382,5.7692122 138.03276,5.5988405 137.10398,5.4256671 136.21888,5.2878776 134.94517,5.0875174 133.66811,4.9347257 132.41485,4.8306624 130.73014,4.6885102 129.03826,4.6351295 127.3478,4.6493875 Z M 127.9915,30.3022 c 7.07788,-0.03482 14.10925,2.921657 19.03981,7.999668 4.75349,4.840032 7.58478,11.546229 7.59935,18.342566 0.0289,3.916444 0.002,7.83325 0.0118,11.749863 4.5e-4,23.526192 -0.006,47.052573 0.0152,70.578643 0.0515,2.05847 0.34629,4.1087 0.84646,6.10531 0.13818,0.54618 0.32271,1.21027 0.51031,1.79331 1.28421,4.09684 3.43871,7.79478 6.06843,11.12669 5.55549,7.38057 8.50437,16.6483 8.34547,25.87673 -0.11282,8.24542 -2.67263,16.44857 -7.33681,23.25515 -4.86094,7.1351 -11.92962,12.75159 -20.01022,15.80642 -9.90746,3.78087 -21.24067,3.66482 -31.05863,-0.35134 -9.1062,-3.68544 -16.839717,-10.64334 -21.456982,-19.31524 -4.146809,-7.72639 -5.788108,-16.7572 -4.658172,-25.45064 0.922122,-7.21899 3.726732,-14.19427 8.112488,-20.00682 1.280797,-1.69565 2.525989,-3.42666 3.522292,-5.30866 0.666822,-1.20767 1.267034,-2.50475 1.754819,-3.7452 0.23908,-0.61487 0.503542,-1.34588 0.712285,-2.02038 0.3713,-1.17429 0.67614,-2.41169 0.88842,-3.57681 0.147,-0.80613 0.25696,-1.62331 0.33249,-2.39866 0.20364,-2.31299 0.0867,-4.63788 0.12243,-6.95639 0.006,-25.87158 -0.008,-51.743354 0.014,-77.614836 0.16052,-7.11212 3.35799,-14.085947 8.61596,-18.873599 4.83778,-4.460598 11.37447,-7.036389 17.96004,-7.015262 l 0.0381,-4.97e-4 z m -0.2843,53.08883 c -2.47244,0.09907 -4.6612,2.33872 -4.63149,4.82846 -0.0384,1.51368 0.0128,3.02826 -0.0117,4.54239 v 70.24993 c -3.00979,0.91775 -5.92849,2.27579 -8.33652,4.32997 -2.07717,1.73356 -3.80605,3.87997 -5.06955,6.27173 -0.15802,0.29322 -0.37198,0.72804 -0.53345,1.08536 -2.58788,5.63132 -2.45713,12.43842 0.39874,17.94548 2.34424,4.63373 6.48236,8.33354 11.37648,10.0867 3.40523,1.24047 7.13783,1.57956 10.70753,0.94132 0.18355,-0.0318 0.56098,-0.10474 0.81613,-0.16106 0.7193,-0.1544 1.47676,-0.37015 2.11902,-0.58521 4.22258,-1.40414 7.96913,-4.19953 10.49309,-7.8673 0.11631,-0.17743 0.28038,-0.40932 0.41961,-0.6307 2.63603,-4.09509 3.75334,-9.13611 3.078,-13.96039 -0.64914,-4.83823 -3.06846,-9.41693 -6.72503,-12.65586 -2.18116,-1.95094 -4.77158,-3.45354 -7.56414,-4.32975 -0.95695,-0.41221 -1.45737,-1.52002 -1.3116,-2.52452 -0.005,-18.99978 0.002,-54.00028 -0.0102,-72.99962 -0.14631,-2.38356 -2.24462,-4.494481 -4.64947,-4.56259 -0.1883,-0.01545 -0.37671,-0.0068 -0.56529,-0.0045 z"
     style="stroke-width:0.493416"
     sodipodi:nodetypes="sccccccccccccccccccccccccccsccccccccccccccccccccccccccccsscccccccccccccccccccccccccccccccccccccccccccccccc" />
</svg>
